<svg position="absolute" width="100%" height="100%" viewBox="0 0 345 322" fill="none" style="background-color:#2C2F34" xmlns="http://www.w3.org/2000/svg">
<g filter="url(#filter0_dddii)">
<rect x="38" y="38" width="259" height="236" rx="8" fill="#363A40"/>
<rect x="38.5" y="38.5" width="258" height="235" rx="7.5" stroke="url(#paint0_linear)"/>
</g>
<path d="M12 53V17C12 14.7909 13.7909 13 16 13H52" stroke="url(#paint1_linear)" stroke-width="2" stroke-linecap="round" stroke-linejoin="round"/>
<path d="M323 53V17C323 14.7909 321.209 13 319 13H283" stroke="url(#paint2_linear)" stroke-width="2" stroke-linecap="round" stroke-linejoin="round"/>
<path d="M12 259V295C12 297.209 13.7909 299 16 299H52" stroke="url(#paint3_linear)" stroke-width="2" stroke-linecap="round" stroke-linejoin="round"/>
<path d="M323 259V295C323 297.209 321.209 299 319 299H283" stroke="url(#paint4_linear)" stroke-width="2" stroke-linecap="round" stroke-linejoin="round"/>
<path d="M283 44H52C47.5817 44 44 47.5817 44 52V260C44 264.418 47.5817 268 52 268H283C287.418 268 291 264.418 291 260V52C291 47.5817 287.418 44 283 44Z" fill="#FCFCFC"/>
<path d="M68.0825 58H59.4375V65.84H68.0825V58Z" fill="#262D3D"/>
<path d="M76.7275 58H68.0825V65.84H76.7275V58Z" fill="#262D3D"/>
<path d="M85.3725 58H76.7275V65.84H85.3725V58Z" fill="#262D3D"/>
<path d="M94.0175 58H85.3725V65.84H94.0175V58Z" fill="#262D3D"/>
<path d="M102.662 58H94.0175V65.84H102.662V58Z" fill="#262D3D"/>
<path d="M111.307 58H102.662V65.84H111.307V58Z" fill="#262D3D"/>
<path d="M119.952 58H111.307V65.84H119.952V58Z" fill="#262D3D"/>
<path d="M137.242 58H128.597V65.84H137.242V58Z" fill="#262D3D"/>
<path d="M145.887 58H137.242V65.84H145.887V58Z" fill="#262D3D"/>
<path d="M171.822 58H163.177V65.84H171.822V58Z" fill="#262D3D"/>
<path d="M189.112 58H180.467V65.84H189.112V58Z" fill="#262D3D"/>
<path d="M206.402 58H197.757V65.84H206.402V58Z" fill="#262D3D"/>
<path d="M223.692 58H215.048V65.84H223.692V58Z" fill="#262D3D"/>
<path d="M232.337 58H223.692V65.84H232.337V58Z" fill="#262D3D"/>
<path d="M240.982 58H232.337V65.84H240.982V58Z" fill="#262D3D"/>
<path d="M249.628 58H240.982V65.84H249.628V58Z" fill="#262D3D"/>
<path d="M258.272 58H249.628V65.84H258.272V58Z" fill="#262D3D"/>
<path d="M266.917 58H258.272V65.84H266.917V58Z" fill="#262D3D"/>
<path d="M275.562 58H266.917V65.84H275.562V58Z" fill="#262D3D"/>
<path d="M68.0825 65.84H59.4375V73.68H68.0825V65.84Z" fill="#262D3D"/>
<path d="M119.952 65.84H111.307L111.307 73.68H119.952V65.84Z" fill="#262D3D"/>
<path d="M154.532 65.84H145.887V73.68H154.532V65.84Z" fill="#262D3D"/>
<path d="M180.467 65.84H171.822V73.68H180.467V65.84Z" fill="#262D3D"/>
<path d="M189.112 65.84H180.467V73.68H189.112V65.84Z" fill="#262D3D"/>
<path d="M206.402 65.84H197.757V73.68H206.402V65.84Z" fill="#262D3D"/>
<path d="M223.692 65.84H215.048V73.68H223.692V65.84Z" fill="#262D3D"/>
<path d="M275.562 65.84H266.917V73.68H275.562V65.84Z" fill="#262D3D"/>
<path d="M68.0825 73.68H59.4375V81.52H68.0825V73.68Z" fill="#262D3D"/>
<path d="M85.3725 73.68H76.7275V81.52H85.3725V73.68Z" fill="#262D3D"/>
<path d="M94.0175 73.68H85.3725V81.52H94.0175V73.68Z" fill="#262D3D"/>
<path d="M102.662 73.68H94.0175V81.52H102.662V73.68Z" fill="#262D3D"/>
<path d="M119.952 73.68H111.307V81.52H119.952V73.68Z" fill="#262D3D"/>
<path d="M137.242 73.68H128.597V81.52H137.242V73.68Z" fill="#262D3D"/>
<path d="M145.887 73.68H137.242V81.52H145.887V73.68Z" fill="#262D3D"/>
<path d="M171.822 73.68H163.177V81.52H171.822V73.68Z" fill="#262D3D"/>
<path d="M180.467 73.68H171.822V81.52H180.467V73.68Z" fill="#262D3D"/>
<path d="M206.402 73.68H197.757V81.52H206.402V73.68Z" fill="#262D3D"/>
<path d="M223.692 73.68H215.048V81.52H223.692V73.68Z" fill="#262D3D"/>
<path d="M240.982 73.68H232.337V81.52H240.982V73.68Z" fill="#262D3D"/>
<path d="M249.628 73.68H240.982V81.52H249.628V73.68Z" fill="#262D3D"/>
<path d="M258.272 73.68H249.628V81.52H258.272V73.68Z" fill="#262D3D"/>
<path d="M275.562 73.68H266.917V81.52H275.562V73.68Z" fill="#262D3D"/>
<path d="M68.0825 81.52H59.4375V89.36H68.0825V81.52Z" fill="#262D3D"/>
<path d="M85.3725 81.52H76.7275V89.36H85.3725V81.52Z" fill="#262D3D"/>
<path d="M94.0175 81.52H85.3725V89.36H94.0175V81.52Z" fill="#262D3D"/>
<path d="M102.662 81.52H94.0175V89.36H102.662V81.52Z" fill="#262D3D"/>
<path d="M119.952 81.52H111.307V89.36H119.952V81.52Z" fill="#262D3D"/>
<path d="M145.887 81.52H137.242V89.36H145.887V81.52Z" fill="#262D3D"/>
<path d="M154.532 81.52H145.887V89.36H154.532V81.52Z" fill="#262D3D"/>
<path d="M171.822 81.52H163.177V89.36H171.822V81.52Z" fill="#262D3D"/>
<path d="M180.467 81.52H171.822V89.36H180.467V81.52Z" fill="#262D3D"/>
<path d="M197.757 81.52H189.113V89.36H197.757V81.52Z" fill="#262D3D"/>
<path d="M223.692 81.52H215.048V89.36H223.692V81.52Z" fill="#262D3D"/>
<path d="M240.982 81.52H232.337V89.36H240.982V81.52Z" fill="#262D3D"/>
<path d="M249.628 81.52H240.982V89.36H249.628V81.52Z" fill="#262D3D"/>
<path d="M258.272 81.52H249.628V89.36H258.272V81.52Z" fill="#262D3D"/>
<path d="M275.562 81.52H266.917V89.36H275.562V81.52Z" fill="#262D3D"/>
<path d="M68.0825 89.36H59.4375V97.2H68.0825V89.36Z" fill="#262D3D"/>
<path d="M85.3725 89.36H76.7275V97.2H85.3725V89.36Z" fill="#262D3D"/>
<path d="M94.0175 89.36H85.3725V97.2H94.0175V89.36Z" fill="#262D3D"/>
<path d="M102.662 89.36H94.0175V97.2H102.662V89.36Z" fill="#262D3D"/>
<path d="M119.952 89.36H111.307V97.2H119.952V89.36Z" fill="#262D3D"/>
<path d="M171.822 89.36H163.177V97.2H171.822V89.36Z" fill="#262D3D"/>
<path d="M180.467 89.36H171.822V97.2H180.467V89.36Z" fill="#262D3D"/>
<path d="M197.757 89.36H189.113V97.2H197.757V89.36Z" fill="#262D3D"/>
<path d="M206.402 89.36H197.757V97.2H206.402V89.36Z" fill="#262D3D"/>
<path d="M223.692 89.36H215.048V97.2H223.692V89.36Z" fill="#262D3D"/>
<path d="M240.982 89.36H232.337V97.2H240.982V89.36Z" fill="#262D3D"/>
<path d="M249.628 89.36H240.982V97.2H249.628V89.36Z" fill="#262D3D"/>
<path d="M258.272 89.36H249.628V97.2H258.272V89.36Z" fill="#262D3D"/>
<path d="M275.562 89.36H266.917V97.2H275.562V89.36Z" fill="#262D3D"/>
<path d="M68.0825 97.2H59.4375V105.04H68.0825V97.2Z" fill="#262D3D"/>
<path d="M119.952 97.2H111.307V105.04H119.952V97.2Z" fill="#262D3D"/>
<path d="M145.887 97.2H137.242V105.04H145.887V97.2Z" fill="#262D3D"/>
<path d="M154.532 97.2H145.887V105.04H154.532V97.2Z" fill="#262D3D"/>
<path d="M171.822 97.2H163.177V105.04H171.822V97.2Z" fill="#262D3D"/>
<path d="M197.757 97.2H189.113V105.04H197.757V97.2Z" fill="#262D3D"/>
<path d="M206.402 97.2H197.757V105.04H206.402V97.2Z" fill="#262D3D"/>
<path d="M223.692 97.2H215.048V105.04H223.692V97.2Z" fill="#262D3D"/>
<path d="M275.562 97.2H266.917V105.04H275.562V97.2Z" fill="#262D3D"/>
<path d="M68.0825 105.04H59.4375V112.88H68.0825V105.04Z" fill="#262D3D"/>
<path d="M76.7275 105.04L68.0825 105.04V112.88H76.7275V105.04Z" fill="#262D3D"/>
<path d="M85.3725 105.04H76.7275V112.88H85.3725V105.04Z" fill="#262D3D"/>
<path d="M94.0175 105.04H85.3725V112.88H94.0175V105.04Z" fill="#262D3D"/>
<path d="M102.662 105.04H94.0175V112.88H102.662V105.04Z" fill="#262D3D"/>
<path d="M111.307 105.04L102.662 105.04V112.88H111.307L111.307 105.04Z" fill="#262D3D"/>
<path d="M119.952 105.04H111.307L111.307 112.88H119.952V105.04Z" fill="#262D3D"/>
<path d="M137.242 105.04L128.597 105.04V112.88H137.242V105.04Z" fill="#262D3D"/>
<path d="M154.532 105.04H145.887V112.88H154.532V105.04Z" fill="#262D3D"/>
<path d="M171.822 105.04H163.177V112.88H171.822V105.04Z" fill="#262D3D"/>
<path d="M189.113 105.04L180.467 105.04V112.88H189.112L189.113 105.04Z" fill="#262D3D"/>
<path d="M206.402 105.04H197.757V112.88H206.402V105.04Z" fill="#262D3D"/>
<path d="M223.692 105.04H215.048V112.88H223.692V105.04Z" fill="#262D3D"/>
<path d="M232.337 105.04L223.692 105.04V112.88H232.337V105.04Z" fill="#262D3D"/>
<path d="M240.982 105.04H232.337V112.88H240.982V105.04Z" fill="#262D3D"/>
<path d="M249.628 105.04H240.982V112.88H249.628V105.04Z" fill="#262D3D"/>
<path d="M258.272 105.04H249.628V112.88H258.272V105.04Z" fill="#262D3D"/>
<path d="M266.917 105.04L258.272 105.04V112.88H266.917V105.04Z" fill="#262D3D"/>
<path d="M275.562 105.04H266.917V112.88H275.562V105.04Z" fill="#262D3D"/>
<path d="M137.242 112.88H128.597V120.72H137.242V112.88Z" fill="#262D3D"/>
<path d="M180.467 112.88H171.822V120.72H180.467V112.88Z" fill="#262D3D"/>
<path d="M197.757 112.88H189.112L189.113 120.72H197.757V112.88Z" fill="#262D3D"/>
<path d="M206.402 112.88H197.757V120.72H206.402V112.88Z" fill="#262D3D"/>
<path d="M68.0825 120.72H59.4375V128.56H68.0825V120.72Z" fill="#262D3D"/>
<path d="M85.3725 120.72H76.7275V128.56H85.3725V120.72Z" fill="#262D3D"/>
<path d="M111.307 120.72H102.662V128.56H111.307V120.72Z" fill="#262D3D"/>
<path d="M119.952 120.72H111.307V128.56H119.952V120.72Z" fill="#262D3D"/>
<path d="M145.887 120.72H137.242V128.56H145.887V120.72Z" fill="#262D3D"/>
<path d="M171.822 120.72H163.177V128.56H171.822V120.72Z" fill="#262D3D"/>
<path d="M180.467 120.72H171.822V128.56H180.467V120.72Z" fill="#262D3D"/>
<path d="M215.048 120.72H206.402V128.56H215.048V120.72Z" fill="#262D3D"/>
<path d="M223.692 120.72H215.048V128.56H223.692V120.72Z" fill="#262D3D"/>
<path d="M258.272 120.72H249.628V128.56H258.272V120.72Z" fill="#262D3D"/>
<path d="M275.562 120.72H266.917V128.56H275.562V120.72Z" fill="#262D3D"/>
<path d="M68.0825 128.56H59.4375V136.4H68.0825V128.56Z" fill="#262D3D"/>
<path d="M76.7275 128.56H68.0825V136.4H76.7275V128.56Z" fill="#262D3D"/>
<path d="M94.0175 128.56H85.3725V136.4H94.0175V128.56Z" fill="#262D3D"/>
<path d="M128.597 128.56H119.952V136.4H128.597V128.56Z" fill="#262D3D"/>
<path d="M154.532 128.56H145.887V136.4H154.532V128.56Z" fill="#262D3D"/>
<path d="M163.177 128.56H154.532V136.4H163.177V128.56Z" fill="#262D3D"/>
<path d="M180.467 128.56H171.822V136.4H180.467V128.56Z" fill="#262D3D"/>
<path d="M189.112 128.56H180.467V136.4H189.112V128.56Z" fill="#262D3D"/>
<path d="M197.757 128.56H189.112V136.4H197.757V128.56Z" fill="#262D3D"/>
<path d="M232.337 128.56H223.692V136.4H232.337V128.56Z" fill="#262D3D"/>
<path d="M249.628 128.56H240.982V136.4H249.628V128.56Z" fill="#262D3D"/>
<path d="M258.272 128.56H249.628V136.4H258.272V128.56Z" fill="#262D3D"/>
<path d="M266.917 128.56H258.272V136.4H266.917V128.56Z" fill="#262D3D"/>
<path d="M275.562 128.56H266.917V136.4H275.562V128.56Z" fill="#262D3D"/>
<path d="M68.0825 136.4H59.4375V144.24H68.0825V136.4Z" fill="#262D3D"/>
<path d="M94.0175 136.4H85.3725V144.24H94.0175V136.4Z" fill="#262D3D"/>
<path d="M102.662 136.4H94.0175V144.24H102.662V136.4Z" fill="#262D3D"/>
<path d="M111.307 136.4H102.662V144.24H111.307V136.4Z" fill="#262D3D"/>
<path d="M119.952 136.4H111.307V144.24H119.952V136.4Z" fill="#262D3D"/>
<path d="M137.242 136.4H128.597V144.24H137.242V136.4Z" fill="#262D3D"/>
<path d="M145.887 136.4H137.242V144.24H145.887V136.4Z" fill="#262D3D"/>
<path d="M163.177 136.4H154.532V144.24H163.177V136.4Z" fill="#262D3D"/>
<path d="M180.467 136.4H171.822V144.24H180.467V136.4Z" fill="#262D3D"/>
<path d="M197.757 136.4H189.112L189.113 144.24H197.757V136.4Z" fill="#262D3D"/>
<path d="M206.402 136.4H197.757V144.24H206.402V136.4Z" fill="#262D3D"/>
<path d="M215.048 136.4H206.402V144.24H215.048V136.4Z" fill="#262D3D"/>
<path d="M266.917 136.4H258.272V144.24H266.917V136.4Z" fill="#262D3D"/>
<path d="M68.0825 144.24H59.4375V152.08H68.0825V144.24Z" fill="#262D3D"/>
<path d="M76.7275 144.24H68.0825V152.08H76.7275V144.24Z" fill="#262D3D"/>
<path d="M85.3725 144.24H76.7275V152.08H85.3725V144.24Z" fill="#262D3D"/>
<path d="M94.0175 144.24H85.3725V152.08H94.0175V144.24Z" fill="#262D3D"/>
<path d="M111.307 144.24H102.662V152.08H111.307V144.24Z" fill="#262D3D"/>
<path d="M145.887 144.24H137.242V152.08H145.887V144.24Z" fill="#262D3D"/>
<path d="M154.532 144.24H145.887V152.08H154.532V144.24Z" fill="#262D3D"/>
<path d="M163.177 144.24H154.532V152.08H163.177V144.24Z" fill="#262D3D"/>
<path d="M171.822 144.24H163.177V152.08H171.822V144.24Z" fill="#262D3D"/>
<path d="M189.113 144.24H180.467V152.08H189.112L189.113 144.24Z" fill="#262D3D"/>
<path d="M206.402 144.24H197.757V152.08H206.402V144.24Z" fill="#262D3D"/>
<path d="M232.337 144.24H223.692V152.08H232.337V144.24Z" fill="#262D3D"/>
<path d="M258.272 144.24H249.628V152.08H258.272V144.24Z" fill="#262D3D"/>
<path d="M275.562 144.24H266.917V152.08H275.562V144.24Z" fill="#262D3D"/>
<path d="M119.952 152.08H111.307L111.307 159.92H119.952V152.08Z" fill="#262D3D"/>
<path d="M128.597 152.08H119.952V159.92H128.597V152.08Z" fill="#262D3D"/>
<path d="M137.242 152.08H128.597V159.92H137.242V152.08Z" fill="#262D3D"/>
<path d="M206.402 152.08H197.757V159.92H206.402V152.08Z" fill="#262D3D"/>
<path d="M215.048 152.08H206.402V159.92H215.048V152.08Z" fill="#262D3D"/>
<path d="M223.692 152.08H215.048V159.92H223.692V152.08Z" fill="#262D3D"/>
<path d="M232.337 152.08H223.692V159.92H232.337V152.08Z" fill="#262D3D"/>
<path d="M275.562 152.08H266.917V159.92H275.562V152.08Z" fill="#262D3D"/>
<path d="M68.0825 159.92H59.4375V167.76H68.0825V159.92Z" fill="#262D3D"/>
<path d="M85.3725 159.92H76.7275V167.76H85.3725V159.92Z" fill="#262D3D"/>
<path d="M111.307 159.92H102.662V167.76H111.307L111.307 159.92Z" fill="#262D3D"/>
<path d="M128.597 159.92H119.952V167.76H128.597V159.92Z" fill="#262D3D"/>
<path d="M137.242 159.92H128.597V167.76H137.242V159.92Z" fill="#262D3D"/>
<path d="M154.532 159.92H145.887V167.76H154.532V159.92Z" fill="#262D3D"/>
<path d="M171.822 159.92H163.177V167.76H171.822V159.92Z" fill="#262D3D"/>
<path d="M180.467 159.92H171.822V167.76H180.467V159.92Z" fill="#262D3D"/>
<path d="M197.757 159.92H189.113V167.76H197.757V159.92Z" fill="#262D3D"/>
<path d="M206.402 159.92H197.757V167.76H206.402V159.92Z" fill="#262D3D"/>
<path d="M223.692 159.92H215.048V167.76H223.692V159.92Z" fill="#262D3D"/>
<path d="M240.982 159.92H232.337V167.76H240.982V159.92Z" fill="#262D3D"/>
<path d="M249.628 159.92H240.982V167.76H249.628V159.92Z" fill="#262D3D"/>
<path d="M266.917 159.92H258.272V167.76H266.917V159.92Z" fill="#262D3D"/>
<path d="M275.562 159.92H266.917V167.76H275.562V159.92Z" fill="#262D3D"/>
<path d="M68.0825 167.76H59.4375V175.6H68.0825V167.76Z" fill="#262D3D"/>
<path d="M111.307 167.76H102.662V175.6H111.307V167.76Z" fill="#262D3D"/>
<path d="M119.952 167.76H111.307V175.6H119.952V167.76Z" fill="#262D3D"/>
<path d="M154.532 167.76H145.887V175.6H154.532V167.76Z" fill="#262D3D"/>
<path d="M163.177 167.76H154.532V175.6H163.177V167.76Z" fill="#262D3D"/>
<path d="M171.822 167.76H163.177V175.6H171.822V167.76Z" fill="#262D3D"/>
<path d="M180.467 167.76H171.822V175.6H180.467V167.76Z" fill="#262D3D"/>
<path d="M223.692 167.76H215.048V175.6H223.692V167.76Z" fill="#262D3D"/>
<path d="M232.337 167.76H223.692V175.6H232.337V167.76Z" fill="#262D3D"/>
<path d="M240.982 167.76H232.337V175.6H240.982V167.76Z" fill="#262D3D"/>
<path d="M249.628 167.76H240.982V175.6H249.628V167.76Z" fill="#262D3D"/>
<path d="M68.0825 175.6H59.4375V183.44H68.0825V175.6Z" fill="#262D3D"/>
<path d="M76.7275 175.6L68.0825 175.6V183.44H76.7275V175.6Z" fill="#262D3D"/>
<path d="M94.0175 175.6H85.3725V183.44H94.0175V175.6Z" fill="#262D3D"/>
<path d="M102.662 175.6L94.0175 175.6V183.44H102.662V175.6Z" fill="#262D3D"/>
<path d="M128.597 175.6L119.952 175.6V183.44H128.597V175.6Z" fill="#262D3D"/>
<path d="M145.887 175.6L137.242 175.6V183.44H145.887V175.6Z" fill="#262D3D"/>
<path d="M154.532 175.6H145.887V183.44H154.532V175.6Z" fill="#262D3D"/>
<path d="M163.177 175.6H154.532V183.44H163.177V175.6Z" fill="#262D3D"/>
<path d="M180.467 175.6H171.822V183.44H180.467V175.6Z" fill="#262D3D"/>
<path d="M189.112 175.6L180.467 175.6V183.44H189.112V175.6Z" fill="#262D3D"/>
<path d="M206.402 175.6H197.757V183.44H206.402V175.6Z" fill="#262D3D"/>
<path d="M240.982 175.6H232.337V183.44H240.982V175.6Z" fill="#262D3D"/>
<path d="M266.917 175.6H258.272V183.44H266.917V175.6Z" fill="#262D3D"/>
<path d="M102.662 183.44H94.0175V191.28H102.662V183.44Z" fill="#262D3D"/>
<path d="M111.307 183.44H102.662V191.28H111.307V183.44Z" fill="#262D3D"/>
<path d="M119.952 183.44H111.307V191.28H119.952V183.44Z" fill="#262D3D"/>
<path d="M137.242 183.44H128.597V191.28H137.242V183.44Z" fill="#262D3D"/>
<path d="M145.887 183.44H137.242V191.28H145.887V183.44Z" fill="#262D3D"/>
<path d="M154.532 183.44H145.887V191.28H154.532V183.44Z" fill="#262D3D"/>
<path d="M171.822 183.44H163.177V191.28H171.822V183.44Z" fill="#262D3D"/>
<path d="M180.467 183.44H171.822V191.28H180.467V183.44Z" fill="#262D3D"/>
<path d="M189.112 183.44H180.467V191.28H189.112V183.44Z" fill="#262D3D"/>
<path d="M206.402 183.44H197.757V191.28H206.402V183.44Z" fill="#262D3D"/>
<path d="M215.048 183.44H206.402V191.28H215.048V183.44Z" fill="#262D3D"/>
<path d="M223.692 183.44H215.048V191.28H223.692V183.44Z" fill="#262D3D"/>
<path d="M232.337 183.44H223.692V191.28H232.337V183.44Z" fill="#262D3D"/>
<path d="M240.982 183.44H232.337V191.28H240.982V183.44Z" fill="#262D3D"/>
<path d="M249.628 183.44H240.982V191.28H249.628V183.44Z" fill="#262D3D"/>
<path d="M258.272 183.44H249.628V191.28H258.272V183.44Z" fill="#262D3D"/>
<path d="M266.917 183.44H258.272V191.28H266.917V183.44Z" fill="#262D3D"/>
<path d="M275.562 183.44H266.917V191.28H275.562V183.44Z" fill="#262D3D"/>
<path d="M145.887 191.28H137.242V199.12H145.887V191.28Z" fill="#262D3D"/>
<path d="M180.467 191.28H171.822V199.12H180.467V191.28Z" fill="#262D3D"/>
<path d="M206.402 191.28H197.757V199.12H206.402V191.28Z" fill="#262D3D"/>
<path d="M240.982 191.28H232.337V199.12H240.982V191.28Z" fill="#262D3D"/>
<path d="M249.628 191.28H240.982V199.12H249.628V191.28Z" fill="#262D3D"/>
<path d="M266.917 191.28H258.272V199.12H266.917V191.28Z" fill="#262D3D"/>
<path d="M275.562 191.28H266.917V199.12H275.562V191.28Z" fill="#262D3D"/>
<path d="M68.0825 199.12H59.4375V206.96H68.0825V199.12Z" fill="#262D3D"/>
<path d="M76.7275 199.12H68.0825V206.96H76.7275V199.12Z" fill="#262D3D"/>
<path d="M85.3725 199.12H76.7275V206.96H85.3725V199.12Z" fill="#262D3D"/>
<path d="M94.0175 199.12H85.3725V206.96H94.0175V199.12Z" fill="#262D3D"/>
<path d="M102.662 199.12H94.0175V206.96H102.662V199.12Z" fill="#262D3D"/>
<path d="M111.307 199.12H102.662V206.96H111.307V199.12Z" fill="#262D3D"/>
<path d="M119.952 199.12H111.307V206.96H119.952V199.12Z" fill="#262D3D"/>
<path d="M145.887 199.12H137.242V206.96H145.887V199.12Z" fill="#262D3D"/>
<path d="M154.532 199.12H145.887V206.96H154.532V199.12Z" fill="#262D3D"/>
<path d="M163.177 199.12H154.532V206.96H163.177V199.12Z" fill="#262D3D"/>
<path d="M171.822 199.12H163.177V206.96H171.822V199.12Z" fill="#262D3D"/>
<path d="M180.467 199.12H171.822V206.96H180.467V199.12Z" fill="#262D3D"/>
<path d="M189.112 199.12H180.467V206.96H189.112V199.12Z" fill="#262D3D"/>
<path d="M197.757 199.12H189.112V206.96H197.757V199.12Z" fill="#262D3D"/>
<path d="M206.402 199.12H197.757V206.96H206.402V199.12Z" fill="#262D3D"/>
<path d="M223.692 199.12H215.048V206.96H223.692V199.12Z" fill="#262D3D"/>
<path d="M240.982 199.12H232.337V206.96H240.982V199.12Z" fill="#262D3D"/>
<path d="M68.0825 206.96H59.4375V214.8H68.0825V206.96Z" fill="#262D3D"/>
<path d="M119.952 206.96H111.307L111.307 214.8H119.952V206.96Z" fill="#262D3D"/>
<path d="M137.242 206.96H128.597V214.8H137.242V206.96Z" fill="#262D3D"/>
<path d="M145.887 206.96H137.242V214.8H145.887V206.96Z" fill="#262D3D"/>
<path d="M154.532 206.96H145.887V214.8H154.532V206.96Z" fill="#262D3D"/>
<path d="M163.177 206.96H154.532V214.8H163.177V206.96Z" fill="#262D3D"/>
<path d="M180.467 206.96H171.822V214.8H180.467V206.96Z" fill="#262D3D"/>
<path d="M189.112 206.96H180.467V214.8H189.112V206.96Z" fill="#262D3D"/>
<path d="M197.757 206.96H189.112V214.8H197.757V206.96Z" fill="#262D3D"/>
<path d="M206.402 206.96H197.757V214.8H206.402V206.96Z" fill="#262D3D"/>
<path d="M240.982 206.96H232.337V214.8H240.982V206.96Z" fill="#262D3D"/>
<path d="M275.562 206.96H266.917V214.8H275.562V206.96Z" fill="#262D3D"/>
<path d="M68.0825 214.8H59.4375V222.64H68.0825V214.8Z" fill="#262D3D"/>
<path d="M85.3725 214.8H76.7275V222.64H85.3725V214.8Z" fill="#262D3D"/>
<path d="M94.0175 214.8H85.3725V222.64H94.0175V214.8Z" fill="#262D3D"/>
<path d="M102.662 214.8H94.0175V222.64H102.662V214.8Z" fill="#262D3D"/>
<path d="M119.952 214.8H111.307V222.64H119.952V214.8Z" fill="#262D3D"/>
<path d="M197.757 214.8H189.112L189.113 222.64H197.757V214.8Z" fill="#262D3D"/>
<path d="M206.402 214.8H197.757V222.64H206.402V214.8Z" fill="#262D3D"/>
<path d="M215.048 214.8H206.402V222.64H215.048V214.8Z" fill="#262D3D"/>
<path d="M223.692 214.8H215.048V222.64H223.692V214.8Z" fill="#262D3D"/>
<path d="M232.337 214.8H223.692V222.64H232.337V214.8Z" fill="#262D3D"/>
<path d="M240.982 214.8H232.337V222.64H240.982V214.8Z" fill="#262D3D"/>
<path d="M249.628 214.8H240.982V222.64H249.628V214.8Z" fill="#262D3D"/>
<path d="M258.272 214.8H249.628V222.64H258.272V214.8Z" fill="#262D3D"/>
<path d="M275.562 214.8H266.917V222.64H275.562V214.8Z" fill="#262D3D"/>
<path d="M68.0825 222.64H59.4375V230.48H68.0825V222.64Z" fill="#262D3D"/>
<path d="M85.3725 222.64H76.7275V230.48H85.3725V222.64Z" fill="#262D3D"/>
<path d="M94.0175 222.64H85.3725V230.48H94.0175V222.64Z" fill="#262D3D"/>
<path d="M102.662 222.64H94.0175V230.48H102.662V222.64Z" fill="#262D3D"/>
<path d="M119.952 222.64H111.307V230.48H119.952V222.64Z" fill="#262D3D"/>
<path d="M154.532 222.64H145.887V230.48H154.532V222.64Z" fill="#262D3D"/>
<path d="M163.177 222.64H154.532V230.48H163.177V222.64Z" fill="#262D3D"/>
<path d="M171.822 222.64H163.177V230.48H171.822V222.64Z" fill="#262D3D"/>
<path d="M197.757 222.64H189.113V230.48H197.757V222.64Z" fill="#262D3D"/>
<path d="M206.402 222.64H197.757V230.48H206.402V222.64Z" fill="#262D3D"/>
<path d="M215.048 222.64H206.402V230.48H215.048V222.64Z" fill="#262D3D"/>
<path d="M223.692 222.64H215.048V230.48H223.692V222.64Z" fill="#262D3D"/>
<path d="M232.337 222.64H223.692V230.48H232.337V222.64Z" fill="#262D3D"/>
<path d="M240.982 222.64H232.337V230.48H240.982V222.64Z" fill="#262D3D"/>
<path d="M249.628 222.64H240.982V230.48H249.628V222.64Z" fill="#262D3D"/>
<path d="M258.272 222.64H249.628V230.48H258.272V222.64Z" fill="#262D3D"/>
<path d="M275.562 222.64H266.917V230.48H275.562V222.64Z" fill="#262D3D"/>
<path d="M68.0825 230.48H59.4375V238.32H68.0825V230.48Z" fill="#262D3D"/>
<path d="M85.3725 230.48H76.7275V238.32H85.3725V230.48Z" fill="#262D3D"/>
<path d="M94.0175 230.48H85.3725V238.32H94.0175V230.48Z" fill="#262D3D"/>
<path d="M102.662 230.48H94.0175V238.32H102.662V230.48Z" fill="#262D3D"/>
<path d="M119.952 230.48H111.307V238.32H119.952V230.48Z" fill="#262D3D"/>
<path d="M137.242 230.48H128.597V238.32H137.242V230.48Z" fill="#262D3D"/>
<path d="M145.887 230.48H137.242V238.32H145.887V230.48Z" fill="#262D3D"/>
<path d="M215.048 230.48H206.402V238.32H215.048V230.48Z" fill="#262D3D"/>
<path d="M258.272 230.48H249.628V238.32H258.272V230.48Z" fill="#262D3D"/>
<path d="M68.0825 238.32H59.4375V246.16H68.0825V238.32Z" fill="#262D3D"/>
<path d="M119.952 238.32H111.307V246.16H119.952V238.32Z" fill="#262D3D"/>
<path d="M206.402 238.32H197.757V246.16H206.402V238.32Z" fill="#262D3D"/>
<path d="M240.982 238.32H232.337V246.16H240.982V238.32Z" fill="#262D3D"/>
<path d="M249.628 238.32H240.982V246.16H249.628V238.32Z" fill="#262D3D"/>
<path d="M258.272 238.32H249.628V246.16H258.272V238.32Z" fill="#262D3D"/>
<path d="M68.0825 246.16H59.4375V254H68.0825V246.16Z" fill="#262D3D"/>
<path d="M76.7275 246.16H68.0825V254H76.7275V246.16Z" fill="#262D3D"/>
<path d="M85.3725 246.16H76.7275V254H85.3725V246.16Z" fill="#262D3D"/>
<path d="M94.0175 246.16H85.3725V254H94.0175V246.16Z" fill="#262D3D"/>
<path d="M102.662 246.16H94.0175V254H102.662V246.16Z" fill="#262D3D"/>
<path d="M111.307 246.16H102.662V254H111.307L111.307 246.16Z" fill="#262D3D"/>
<path d="M119.952 246.16H111.307L111.307 254H119.952V246.16Z" fill="#262D3D"/>
<path d="M137.242 246.16H128.597V254H137.242V246.16Z" fill="#262D3D"/>
<path d="M145.887 246.16H137.242V254H145.887V246.16Z" fill="#262D3D"/>
<path d="M154.532 246.16H145.887V254H154.532V246.16Z" fill="#262D3D"/>
<path d="M171.822 246.16H163.177V254H171.822V246.16Z" fill="#262D3D"/>
<path d="M180.467 246.16H171.822V254H180.467V246.16Z" fill="#262D3D"/>
<path d="M189.112 246.16H180.467V254H189.112V246.16Z" fill="#262D3D"/>
<path d="M197.757 246.16H189.112V254H197.757V246.16Z" fill="#262D3D"/>
<path d="M206.402 246.16H197.757V254H206.402V246.16Z" fill="#262D3D"/>
<path d="M215.048 246.16H206.402V254H215.048V246.16Z" fill="#262D3D"/>
<path d="M223.692 246.16H215.048V254H223.692V246.16Z" fill="#262D3D"/>
<path d="M240.982 246.16H232.337V254H240.982V246.16Z" fill="#262D3D"/>
<path d="M258.272 246.16H249.628V254H258.272V246.16Z" fill="#262D3D"/>
<path d="M275.562 246.16H266.917V254H275.562V246.16Z" fill="#262D3D"/>
<defs>
<filter id="filter0_dddii" x="0" y="0" width="345" height="322" filterUnits="userSpaceOnUse" color-interpolation-filters="sRGB">
<feFlood flood-opacity="0" result="BackgroundImageFix"/>
<feColorMatrix in="SourceAlpha" type="matrix" values="0 0 0 0 0 0 0 0 0 0 0 0 0 0 0 0 0 0 127 0"/>
<feOffset dx="-8" dy="-8"/>
<feGaussianBlur stdDeviation="15"/>
<feColorMatrix type="matrix" values="0 0 0 0 0.760784 0 0 0 0 0.784314 0 0 0 0 0.823529 0 0 0 0.21 0"/>
<feBlend mode="normal" in2="BackgroundImageFix" result="effect1_dropShadow"/>
<feColorMatrix in="SourceAlpha" type="matrix" values="0 0 0 0 0 0 0 0 0 0 0 0 0 0 0 0 0 0 127 0"/>
<feOffset dx="4" dy="4"/>
<feGaussianBlur stdDeviation="6"/>
<feColorMatrix type="matrix" values="0 0 0 0 0.0980392 0 0 0 0 0.105882 0 0 0 0 0.113725 0 0 0 0.4 0"/>
<feBlend mode="multiply" in2="effect1_dropShadow" result="effect2_dropShadow"/>
<feColorMatrix in="SourceAlpha" type="matrix" values="0 0 0 0 0 0 0 0 0 0 0 0 0 0 0 0 0 0 127 0"/>
<feOffset dx="8" dy="8"/>
<feGaussianBlur stdDeviation="20"/>
<feColorMatrix type="matrix" values="0 0 0 0 0.0980392 0 0 0 0 0.105882 0 0 0 0 0.113725 0 0 0 0.4 0"/>
<feBlend mode="normal" in2="effect2_dropShadow" result="effect3_dropShadow"/>
<feBlend mode="normal" in="SourceGraphic" in2="effect3_dropShadow" result="shape"/>
<feColorMatrix in="SourceAlpha" type="matrix" values="0 0 0 0 0 0 0 0 0 0 0 0 0 0 0 0 0 0 127 0" result="hardAlpha"/>
<feMorphology radius="2" operator="dilate" in="SourceAlpha" result="effect4_innerShadow"/>
<feOffset dx="1" dy="1"/>
<feGaussianBlur stdDeviation="6"/>
<feComposite in2="hardAlpha" operator="arithmetic" k2="-1" k3="1"/>
<feColorMatrix type="matrix" values="0 0 0 0 0.0980392 0 0 0 0 0.105882 0 0 0 0 0.113725 0 0 0 1 0"/>
<feBlend mode="normal" in2="shape" result="effect4_innerShadow"/>
<feColorMatrix in="SourceAlpha" type="matrix" values="0 0 0 0 0 0 0 0 0 0 0 0 0 0 0 0 0 0 127 0" result="hardAlpha"/>
<feOffset dx="-1" dy="-1"/>
<feGaussianBlur stdDeviation="3"/>
<feComposite in2="hardAlpha" operator="arithmetic" k2="-1" k3="1"/>
<feColorMatrix type="matrix" values="0 0 0 0 0.760784 0 0 0 0 0.784314 0 0 0 0 0.823529 0 0 0 0.15 0"/>
<feBlend mode="normal" in2="effect4_innerShadow" result="effect5_innerShadow"/>
</filter>
<linearGradient id="paint0_linear" x1="28.5" y1="48.5" x2="297" y2="262" gradientUnits="userSpaceOnUse">
<stop stop-color="#53565B"/>
<stop offset="1" stop-color="#53565B" stop-opacity="0"/>
</linearGradient>
<linearGradient id="paint1_linear" x1="5.5" y1="4.5" x2="25" y2="29" gradientUnits="userSpaceOnUse">
<stop stop-color="#C2C8D2"/>
<stop offset="1" stop-color="#53565B" stop-opacity="0"/>
</linearGradient>
<linearGradient id="paint2_linear" x1="329.5" y1="4.5" x2="310" y2="29" gradientUnits="userSpaceOnUse">
<stop stop-color="#C2C8D2"/>
<stop offset="1" stop-color="#53565B" stop-opacity="0"/>
</linearGradient>
<linearGradient id="paint3_linear" x1="5.5" y1="307.5" x2="25" y2="283" gradientUnits="userSpaceOnUse">
<stop stop-color="#C2C8D2"/>
<stop offset="1" stop-color="#53565B" stop-opacity="0"/>
</linearGradient>
<linearGradient id="paint4_linear" x1="329.5" y1="307.5" x2="310" y2="283" gradientUnits="userSpaceOnUse">
<stop stop-color="#C2C8D2"/>
<stop offset="1" stop-color="#53565B" stop-opacity="0"/>
</linearGradient>
</defs>
</svg>
